<svg width="42" height="34" viewBox="0 0 42 34" fill="none" xmlns="http://www.w3.org/2000/svg">
<path fill-rule="evenodd" clip-rule="evenodd" d="M10.4234 0.941623C17.4604 0.312428 24.5396 0.312428 31.5767 0.941623L34.6113 1.21296C37.6361 1.48341 40.08 3.79416 40.5193 6.79901C41.5083 13.5637 41.5083 20.4362 40.5193 27.2009C40.08 30.2057 37.6361 32.5165 34.6113 32.7869L31.5767 33.0583C24.5396 33.6874 17.4604 33.6874 10.4234 33.0583L7.3887 32.7869C4.36397 32.5165 1.92006 30.2057 1.48075 27.2009C0.491767 20.4362 0.491767 13.5637 1.48075 6.79901C1.92006 3.79416 4.36397 1.48341 7.3887 1.21296L10.4234 0.941623ZM8.71115 6.67923C8.2463 6.42893 7.68408 6.44143 7.23082 6.71216C6.77756 6.9829 6.5 7.47198 6.5 7.99994V26.9999C6.5 27.8284 7.17157 28.4999 8 28.4999C8.82843 28.4999 9.5 27.8284 9.5 26.9999V10.5113L20.2888 16.3206C20.7328 16.5597 21.2672 16.5597 21.7112 16.3206L32.5 10.5113V26.9999C32.5 27.8284 33.1716 28.4999 34 28.4999C34.8284 28.4999 35.5 27.8284 35.5 26.9999V7.99994C35.5 7.47198 35.2224 6.9829 34.7692 6.71216C34.3159 6.44143 33.7537 6.42893 33.2888 6.67923L21 13.2963L8.71115 6.67923Z" fill="#203239"/>
</svg>
