<svg width="17" height="17" viewBox="0 0 17 17" fill="none" xmlns="http://www.w3.org/2000/svg">
<path d="M1.00019 6.8605C2.91659 11.0344 6.3266 14.3529 10.5661 16.1519L11.2457 16.4547C12.8005 17.1474 14.6283 16.6211 15.5766 15.2076L16.4647 13.8839C16.7535 13.4536 16.6656 12.8739 16.2622 12.5485L13.2503 10.1187C12.808 9.76181 12.1574 9.84493 11.819 10.3016L10.8873 11.5589C8.49649 10.3795 6.55544 8.43846 5.37609 6.04765L6.63334 5.11593C7.09001 4.77751 7.17313 4.12699 6.81624 3.68461L4.38637 0.672667C4.06103 0.269386 3.48152 0.181419 3.05116 0.469987L1.71832 1.36368C0.295973 2.31739 -0.227407 4.16024 0.481324 5.71919L0.999413 6.85881L1.00019 6.8605Z" fill="black"/>
</svg>
